<?xml version="1.0" encoding="UTF-8"?>
<svg id="Layer_1" xmlns="http://www.w3.org/2000/svg" viewBox="0 0 228.8 335.88">
  <defs>
    <style>
      .cls-1 {
        fill: #50a550;
      }

      .cls-2 {
        fill: #85cc9a;
      }
    </style>
  </defs>
  <path class="cls-2" d="M114.85,332.39c-4.73-5.61-15.8-38.88-25.93-78.31l-.58-2.25H4.64c-.85,0-1.27-.57-1.41-.81-.14-.25-.42-.89,0-1.63l63.93-110.74h-29.19c-.85,0-1.27-.57-1.41-.81-.14-.25-.42-.89,0-1.63L112.99,3.81c.42-.74,1.13-.81,1.41-.81s.99.08,1.41.81l76.43,132.38c.42.74.14,1.38,0,1.63s-.56.81-1.41.81h-29.19l63.93,110.74c.42.74.14,1.38,0,1.63-.14.24-.56.81-1.41.81h-82.8l-.58,2.25c-10.14,39.43-21.2,72.7-25.93,78.31Z"/>
  <path class="cls-1" d="M114.4,7.37l74.06,128.27h-32.01l5.2,9,60.14,104.18h-82.75s-1.16,4.51-1.16,4.51c-.05.18-4.64,18.02-10.25,36.66-6.37,21.17-10.42,31.41-12.78,36.34-2.36-4.93-6.41-15.17-12.78-36.34-5.61-18.64-10.2-36.48-10.25-36.66l-1.16-4.51H7.01l60.14-104.18,5.2-9h-32.01L114.4,7.37M114.4,0c-1.56,0-3.12.77-4.01,2.31L33.96,134.7c-1.78,3.09.45,6.94,4.01,6.94h23.99L.63,247.88c-1.78,3.09.45,6.94,4.01,6.94h81.37s20.84,81.06,28.84,81.06,28.84-81.06,28.84-81.06h80.47c3.56,0,5.79-3.86,4.01-6.94l-61.33-106.24h23.99c3.56,0,5.79-3.86,4.01-6.94L118.41,2.31c-.89-1.54-2.45-2.31-4.01-2.31h0Z"/>
</svg>